<svg width="573" height="541" viewBox="0 0 573 541" fill="none" xmlns="http://www.w3.org/2000/svg">
	<path d="M288.5 475.531L195.5 218.031L288.5 152.531L378.5 218.031L288.5 475.531Z" fill="#D12AD4" stroke="#06FA85" stroke-width="3"/>
	<path d="M457.359 258.014L288.679 32.531L120 258.014" stroke="#00B2FF" stroke-width="3"/>
	<path d="M120 257.676L288.68 483.16L457.359 257.676" stroke="#00B2FF" stroke-width="3"/>
	<path d="M510.963 323.71L411.399 54.4641L188.55 215.844" stroke="#00B2FF" stroke-width="3"/>
	<path d="M188.642 215.521L288.206 484.767L511.055 323.388" stroke="#00B2FF" stroke-width="3"/>
	<path d="M385.272 214.586L160.572 55.7931L64.1276 326.172" stroke="#00B2FF" stroke-width="3"/>
	<path d="M64.0315 325.851L288.731 484.643L385.176 214.264" stroke="#00B2FF" stroke-width="3"/>
	<rect x="234.7" y="267.204" width="106.066" height="31.9786" fill="#27D4DF"/>
	<path d="M219.153 237.703H358.412L340.766 262.7H234.7L219.153 237.703Z" fill="white"/>
	<rect x="243.475" y="269.907" width="17.932" height="4.05363" fill="#FFFCFC"/>
	<rect x="236.226" y="275.537" width="70.5832" height="4.05363" fill="#FFFCFC"/>
	<rect x="252.25" y="292.427" width="37.39" height="4.05363" fill="#FFFCFC"/>
	<path d="M243.475 281.167H306.809L305.474 288.373L299.112 289.499H273.14H249.671L244.334 288.373L243.475 281.167Z" fill="#FFFCFC"/>
	<rect x="288.878" y="269.682" width="17.932" height="4.05363" fill="#FFFCFC"/>
	<rect x="310.625" y="269.907" width="13.7351" height="4.05363" fill="#FFFCFC"/>
	<rect x="310.625" y="275.537" width="13.7351" height="7.88206" fill="#FFFCFC"/>
	<rect x="326.077" y="275.312" width="13.7351" height="22.295" fill="#FFFCFC"/>
	<rect x="265.223" y="269.682" width="17.932" height="4.05363" fill="#FFFCFC"/>
	<rect x="236.226" y="269.682" width="3.43378" height="4.05363" fill="#FFFCFC"/>
	<rect x="247.672" y="292.427" width="3.43378" height="4.05363" fill="#FFFCFC"/>
	<rect x="310.625" y="293.553" width="3.43378" height="4.05363" fill="#FFFCFC"/>
	<rect x="315.776" y="288.373" width="3.43378" height="4.05363" fill="#FFFCFC"/>
	<rect x="320.926" y="293.553" width="3.43378" height="4.05363" fill="#FFFCFC"/>
	<rect x="315.776" y="293.553" width="3.43378" height="4.05363" fill="#FFFCFC"/>
	<rect x="296.127" y="292.427" width="3.43378" height="4.05363" fill="#FFFCFC"/>
	<rect x="243.094" y="292.427" width="3.43378" height="4.05363" fill="#FFFCFC"/>
	<rect x="290.976" y="292.427" width="3.43378" height="4.05363" fill="#FFFCFC"/>
	<rect x="236.226" y="281.167" width="5.5322" height="4.05363" fill="#FFFCFC"/>
	<rect x="236.226" y="292.427" width="5.5322" height="4.05363" fill="#FFFCFC"/>
	<rect x="301.277" y="292.427" width="5.5322" height="4.05363" fill="#FFFCFC"/>
	<rect x="236.226" y="286.797" width="5.5322" height="4.05363" fill="#FFFCFC"/>
	</svg>
	